<svg 
    xmlns="http://www.w3.org/2000/svg"  
    xmlns:xlink="http://www.w3.org/1999/xlink" 
    version="1.1" 
    x="0px" 
    y="0px" 
    viewBox="20 20 64 64"
    xml:space="default">
<g>
<path d="M30.4,63.6c0,5.7,8.4,10,19.6,10s19.6-4.3,19.6-10V48.2l8.4-3.9v22.1c0,0.9,0.7,1.6,1.6,1.6c0.9,0,1.6-0.7,1.6-1.6V41.8   
c0,0,0,0,0,0c0-0.1,0-0.2,0-0.2c0,0,0-0.1,0-0.1c0,0,0-0.1,0-0.1c-0.2-0.5-0.5-0.8-1-1L50.7,26.6c-0.4-0.2-0.9-0.2-1.3,0L19.7,40.3   
c-0.6,0.3-0.9,0.8-0.9,1.4c0,0.6,0.4,1.2,0.9,1.4l10.6,4.9V63.6z M50,29.8l25.8,12L50,53.8l-25.8-12L50,29.8z M33.6,63.6v-14   
L49.3,57c0.2,0.1,0.4,0.1,0.7,0.1s0.5,0,0.7-0.1l15.8-7.3v14c0,3.2-6.8,6.8-16.4,6.8S33.6,66.8,33.6,63.6z"/>
</g>
</svg>