<svg height="512" viewBox="0 0 192 192" width="512" xmlns="http://www.w3.org/2000/svg" xmlns:xlink="http://www.w3.org/1999/xlink"><linearGradient id="New_Gradient_Swatch_1" gradientUnits="userSpaceOnUse" x1="44.343" x2="139.657" y1="167.657" y2="72.343"><stop offset="0" stop-color="#34cdfa"/><stop offset="1" stop-color="#e8d9f1"/></linearGradient><path d="m166.146 50.879-40-48a8 8 0 0 0 -6.146-2.879h-96a8 8 0 0 0 -8 8v176a8 8 0 0 0 8 8h136a8 8 0 0 0 8-8v-128a8 8 0 0 0 -1.854-5.121z" fill="#e6f9fe"/><path d="m48 168a8 8 0 0 1 -8-8v-160h-16a8 8 0 0 0 -8 8v176a8 8 0 0 0 8 8h136a8 8 0 0 0 8-8v-16z" fill="#ccf2fe"/><g fill="#34cdfa"><path d="m88 0h16v32h-16z"/><path d="m64 0h16v32h-16z"/><path d="m40 0h16v32h-16z"/></g><rect fill="url(#New_Gradient_Swatch_1)" height="96" rx="8" width="104" x="40" y="72"/><path d="m64 104h56v16h-56z" fill="#fff"/><path d="m64 128h56v16h-56z" fill="#fff"/></svg>